<?xml version="1.0" encoding="utf-8"?>
<!-- Generator: Adobe Illustrator 19.0.1, SVG Export Plug-In . SVG Version: 6.00 Build 0)  -->
<svg version="1.1" id="star" xmlns="http://www.w3.org/2000/svg" xmlns:xlink="http://www.w3.org/1999/xlink" x="0px" y="0px"
	 viewBox="0 0 50 50" style="enable-background:new 0 0 50 50;" xml:space="preserve">
<style type="text/css">
	.st0{fill:#C9C8C8;}
</style>
<path id="body" class="st0" d="M50,18.1c-0.1-0.3-0.4-0.6-0.8-0.6L45,17.2l-5-0.3l-5-0.3l-3-0.2l-2-5.2L25.8,0.6
	C25.7,0.2,25.4,0,25,0c0,0,0,0,0,0s0,0,0,0c-0.4,0-0.7,0.2-0.8,0.6L20,11.2l-2,5.2l-3,0.2l-5,0.3l-5,0.3l-4.2,0.3
	c-0.4,0-0.7,0.3-0.8,0.6c-0.1,0.3,0,0.7,0.3,0.9l4.7,4l5,4.3l3.4,2.9L10,43.5l-0.8,3c-0.1,0.3,0,0.7,0.3,0.9
	c0.1,0.1,0.3,0.1,0.4,0.2c0,0,0.1,0,0.1,0c0.2,0,0.3,0,0.5-0.1l4.4-2.8l5-3.1l5-3.1l0,0l0,0l5,3.1l5,3.1l4.4,2.8
	c0.1,0.1,0.3,0.1,0.5,0.1c0,0,0.1,0,0.1,0c0.2,0,0.3-0.1,0.4-0.2c0.3-0.2,0.4-0.6,0.3-0.9l-0.8-3l-3.4-13.3l3.4-2.9l5-4.3l4.7-4
	C50,18.8,50.1,18.5,50,18.1z"/>
</svg>
