<?xml version="1.0" encoding="utf-8"?>
<!-- Generator: Adobe Illustrator 19.0.1, SVG Export Plug-In . SVG Version: 6.00 Build 0)  -->
<svg version="1.1" id="facebook" xmlns="http://www.w3.org/2000/svg" xmlns:xlink="http://www.w3.org/1999/xlink" x="0px" y="0px"
	 viewBox="0 0 50 50" style="enable-background:new 0 0 50 50;" xml:space="preserve">
<style type="text/css">
	.st0{fill:#3B5998;}
	.st1{fill:#FFFFFF;}
</style>
<g id="_x31_">
	<path id="_x31__2_" class="st0" d="M47,50H3c-1.7,0-3-1.3-3-3V3c0-1.7,1.3-3,3-3h44c1.7,0,3,1.3,3,3v44C50,48.7,48.7,50,47,50z"/>
	<path id="_x31__1_" class="st1" d="M18.1,19.9h3.1v-1.4v-1.4v-0.2c0-1.3,0-3.4,1-4.7c1-1.4,2.4-2.3,4.8-2.3c3.9,0,5.6,0.6,5.6,0.6
		l-0.8,4.6c0,0-1.3-0.4-2.5-0.4c-1.2,0-2.3,0.4-2.3,1.6v0.5v1.6v1.4h5l-0.3,4.5H27v15.7h-5.9V24.4h-3.1V19.9L18.1,19.9z"/>
</g>
</svg>
