<?xml version="1.0" encoding="utf-8"?>
<!-- Generator: Adobe Illustrator 19.0.1, SVG Export Plug-In . SVG Version: 6.00 Build 0)  -->
<svg version="1.1" id="vk" xmlns="http://www.w3.org/2000/svg" xmlns:xlink="http://www.w3.org/1999/xlink" x="0px" y="0px"
	 viewBox="0 0 50 50" style="enable-background:new 0 0 50 50;" xml:space="preserve">
<style type="text/css">
	.st0{fill:#45668E;}
	.st1{fill-rule:evenodd;clip-rule:evenodd;fill:#FFFFFF;}
</style>
<g id="_x31_">
	<path id="_x31__2_" class="st0" d="M47,50.4H3c-1.7,0-3-1.3-3-3v-44c0-1.7,1.3-3,3-3h44c1.7,0,3,1.3,3,3v44
		C50,49,48.7,50.4,47,50.4z"/>
	<path id="_x31__1_" class="st1" d="M14.9,11.8h11.9c3.9,0,7.2,1.9,7.2,5.8c0,3.2-1.2,4.5-3.6,5.9c0.2,0.2,1.6,0.6,2,0.8
		c0.7,0.4,1.2,0.7,1.7,1.2c1.4,1.4,1.6,2.7,1.6,4.8c0,5-4.9,7.6-9.6,7.6H14.9L14.9,11.8L14.9,11.8z M21.4,18.7l0,3.4
		c3.1,0,5.9,0.4,5.9-2.9c0-3.1-3.2-2.6-5.9-2.6L21.4,18.7L21.4,18.7z M21.4,33.1c3.3,0,7.5,0.6,7.6-3.3c0.1-4-4.3-3.3-7.6-3.3
		L21.4,33.1L21.4,33.1z"/>
</g>
</svg>
